<mxfile host="app.diagrams.net" modified="2023-04-07T03:43:45.041Z" agent="Mozilla/5.0 (X11; Linux x86_64; rv:109.0) Gecko/20100101 Firefox/111.0" etag="g3zedETleTSAf9FPEKvx" version="21.1.5" type="device">
  <diagram name="Page-1" id="j6DliFGGmF29G3w-x-l_">
    <mxGraphModel dx="1434" dy="748" grid="1" gridSize="10" guides="1" tooltips="1" connect="1" arrows="1" fold="1" page="1" pageScale="1" pageWidth="850" pageHeight="1100" math="0" shadow="0">
      <root>
        <mxCell id="0" />
        <mxCell id="1" parent="0" />
        <mxCell id="nyXTB2SBaEIIJbB1mCwM-12" style="rounded=0;orthogonalLoop=1;jettySize=auto;html=1;endArrow=none;endFill=0;" edge="1" parent="1" source="nyXTB2SBaEIIJbB1mCwM-1" target="nyXTB2SBaEIIJbB1mCwM-2">
          <mxGeometry relative="1" as="geometry" />
        </mxCell>
        <mxCell id="nyXTB2SBaEIIJbB1mCwM-1" value="&lt;div&gt;User&lt;/div&gt;" style="shape=umlActor;verticalLabelPosition=bottom;verticalAlign=top;html=1;outlineConnect=0;" vertex="1" parent="1">
          <mxGeometry x="70" y="540" width="30" height="60" as="geometry" />
        </mxCell>
        <mxCell id="nyXTB2SBaEIIJbB1mCwM-34" style="edgeStyle=orthogonalEdgeStyle;rounded=0;orthogonalLoop=1;jettySize=auto;html=1;exitX=1;exitY=0;exitDx=0;exitDy=0;entryX=0;entryY=0.5;entryDx=0;entryDy=0;dashed=1;startArrow=classic;startFill=1;endArrow=none;endFill=0;" edge="1" parent="1" source="nyXTB2SBaEIIJbB1mCwM-2" target="nyXTB2SBaEIIJbB1mCwM-9">
          <mxGeometry relative="1" as="geometry" />
        </mxCell>
        <mxCell id="nyXTB2SBaEIIJbB1mCwM-36" value="&amp;lt;&amp;lt;extend&amp;gt;&amp;gt;" style="edgeLabel;html=1;align=center;verticalAlign=middle;resizable=0;points=[];" vertex="1" connectable="0" parent="nyXTB2SBaEIIJbB1mCwM-34">
          <mxGeometry x="-0.0826" relative="1" as="geometry">
            <mxPoint y="-22" as="offset" />
          </mxGeometry>
        </mxCell>
        <mxCell id="nyXTB2SBaEIIJbB1mCwM-35" style="edgeStyle=orthogonalEdgeStyle;rounded=0;orthogonalLoop=1;jettySize=auto;html=1;exitX=1;exitY=1;exitDx=0;exitDy=0;entryX=0;entryY=0.5;entryDx=0;entryDy=0;dashed=1;startArrow=classic;startFill=1;endArrow=none;endFill=0;" edge="1" parent="1" source="nyXTB2SBaEIIJbB1mCwM-2" target="nyXTB2SBaEIIJbB1mCwM-5">
          <mxGeometry relative="1" as="geometry" />
        </mxCell>
        <mxCell id="nyXTB2SBaEIIJbB1mCwM-37" value="&amp;lt;&amp;lt;extend&amp;gt;&amp;gt;" style="edgeLabel;html=1;align=center;verticalAlign=middle;resizable=0;points=[];" vertex="1" connectable="0" parent="nyXTB2SBaEIIJbB1mCwM-35">
          <mxGeometry x="-0.0091" y="-3" relative="1" as="geometry">
            <mxPoint y="11" as="offset" />
          </mxGeometry>
        </mxCell>
        <mxCell id="nyXTB2SBaEIIJbB1mCwM-2" value="Sign In" style="ellipse;whiteSpace=wrap;html=1;" vertex="1" parent="1">
          <mxGeometry x="250" y="530" width="120" height="80" as="geometry" />
        </mxCell>
        <mxCell id="nyXTB2SBaEIIJbB1mCwM-5" value="Sign Up" style="ellipse;whiteSpace=wrap;html=1;" vertex="1" parent="1">
          <mxGeometry x="550" y="660" width="120" height="80" as="geometry" />
        </mxCell>
        <mxCell id="nyXTB2SBaEIIJbB1mCwM-16" style="edgeStyle=orthogonalEdgeStyle;rounded=0;orthogonalLoop=1;jettySize=auto;html=1;entryX=0.5;entryY=0;entryDx=0;entryDy=0;endArrow=classic;endFill=1;dashed=1;" edge="1" parent="1" source="nyXTB2SBaEIIJbB1mCwM-6" target="nyXTB2SBaEIIJbB1mCwM-2">
          <mxGeometry relative="1" as="geometry" />
        </mxCell>
        <mxCell id="nyXTB2SBaEIIJbB1mCwM-17" value="&amp;lt;&amp;lt;include&amp;gt;&amp;gt;" style="edgeLabel;html=1;align=center;verticalAlign=middle;resizable=0;points=[];" vertex="1" connectable="0" parent="nyXTB2SBaEIIJbB1mCwM-16">
          <mxGeometry x="-0.3073" relative="1" as="geometry">
            <mxPoint y="21" as="offset" />
          </mxGeometry>
        </mxCell>
        <mxCell id="nyXTB2SBaEIIJbB1mCwM-6" value="View Contact" style="ellipse;whiteSpace=wrap;html=1;" vertex="1" parent="1">
          <mxGeometry x="250" y="280" width="120" height="80" as="geometry" />
        </mxCell>
        <mxCell id="nyXTB2SBaEIIJbB1mCwM-24" style="edgeStyle=orthogonalEdgeStyle;rounded=0;orthogonalLoop=1;jettySize=auto;html=1;entryX=0.5;entryY=0;entryDx=0;entryDy=0;dashed=1;" edge="1" parent="1" source="nyXTB2SBaEIIJbB1mCwM-7" target="nyXTB2SBaEIIJbB1mCwM-6">
          <mxGeometry relative="1" as="geometry" />
        </mxCell>
        <mxCell id="nyXTB2SBaEIIJbB1mCwM-25" value="&amp;lt;&amp;lt;extend&amp;gt;&amp;gt;" style="edgeLabel;html=1;align=center;verticalAlign=middle;resizable=0;points=[];" vertex="1" connectable="0" parent="nyXTB2SBaEIIJbB1mCwM-24">
          <mxGeometry x="0.25" y="1" relative="1" as="geometry">
            <mxPoint x="-1" y="-21" as="offset" />
          </mxGeometry>
        </mxCell>
        <mxCell id="nyXTB2SBaEIIJbB1mCwM-7" value="Search Contact" style="ellipse;whiteSpace=wrap;html=1;" vertex="1" parent="1">
          <mxGeometry x="250" y="60" width="120" height="80" as="geometry" />
        </mxCell>
        <mxCell id="nyXTB2SBaEIIJbB1mCwM-22" style="edgeStyle=orthogonalEdgeStyle;rounded=0;orthogonalLoop=1;jettySize=auto;html=1;entryX=0.5;entryY=1;entryDx=0;entryDy=0;dashed=1;" edge="1" parent="1" source="nyXTB2SBaEIIJbB1mCwM-8" target="nyXTB2SBaEIIJbB1mCwM-2">
          <mxGeometry relative="1" as="geometry" />
        </mxCell>
        <mxCell id="nyXTB2SBaEIIJbB1mCwM-23" value="&amp;lt;&amp;lt;include&amp;gt;&amp;gt;" style="edgeLabel;html=1;align=center;verticalAlign=middle;resizable=0;points=[];" vertex="1" connectable="0" parent="nyXTB2SBaEIIJbB1mCwM-22">
          <mxGeometry x="-0.1583" y="-1" relative="1" as="geometry">
            <mxPoint x="-1" y="-8" as="offset" />
          </mxGeometry>
        </mxCell>
        <mxCell id="nyXTB2SBaEIIJbB1mCwM-8" value="Chat" style="ellipse;whiteSpace=wrap;html=1;" vertex="1" parent="1">
          <mxGeometry x="250" y="780" width="120" height="80" as="geometry" />
        </mxCell>
        <mxCell id="nyXTB2SBaEIIJbB1mCwM-9" value="Sign Out" style="ellipse;whiteSpace=wrap;html=1;" vertex="1" parent="1">
          <mxGeometry x="550" y="400" width="120" height="80" as="geometry" />
        </mxCell>
        <mxCell id="nyXTB2SBaEIIJbB1mCwM-20" style="edgeStyle=orthogonalEdgeStyle;rounded=0;orthogonalLoop=1;jettySize=auto;html=1;entryX=1;entryY=0.5;entryDx=0;entryDy=0;dashed=1;" edge="1" parent="1" source="nyXTB2SBaEIIJbB1mCwM-10" target="nyXTB2SBaEIIJbB1mCwM-6">
          <mxGeometry relative="1" as="geometry" />
        </mxCell>
        <mxCell id="nyXTB2SBaEIIJbB1mCwM-21" value="&amp;lt;&amp;lt;extend&amp;gt;&amp;gt;" style="edgeLabel;html=1;align=center;verticalAlign=middle;resizable=0;points=[];" vertex="1" connectable="0" parent="nyXTB2SBaEIIJbB1mCwM-20">
          <mxGeometry x="0.1818" y="1" relative="1" as="geometry">
            <mxPoint x="19" y="-1" as="offset" />
          </mxGeometry>
        </mxCell>
        <mxCell id="nyXTB2SBaEIIJbB1mCwM-10" value="Add Contact" style="ellipse;whiteSpace=wrap;html=1;" vertex="1" parent="1">
          <mxGeometry x="550" y="280" width="120" height="80" as="geometry" />
        </mxCell>
      </root>
    </mxGraphModel>
  </diagram>
</mxfile>
